<?xml version="1.0" encoding="utf-8"?>
<!-- Generator: Adobe Illustrator 25.2.0, SVG Export Plug-In . SVG Version: 6.00 Build 0)  -->
<svg version="1.1" id="Layer_1" xmlns="http://www.w3.org/2000/svg" xmlns:xlink="http://www.w3.org/1999/xlink" x="0px" y="0px"
	 viewBox="0 0 48 48" style="enable-background:new 0 0 48 48;" xml:space="preserve">
<style type="text/css">
	.st0{fill:#F5BC00;}
	.st1{fill:#F55376;}
	.st2{fill:#EB0000;}
	.st3{fill:#EB7900;}
</style>
<rect x="6" y="17" class="st0" width="3" height="26"/>
<rect x="39" y="17" class="st0" width="3" height="26"/>
<rect x="29" y="10" class="st0" width="3" height="33"/>
<rect x="16" y="10" class="st0" width="3" height="33"/>
<rect x="7" y="40" class="st0" width="34" height="3"/>
<rect x="7" y="28" class="st0" width="34" height="3"/>
<rect x="17" y="18" class="st0" width="14" height="3"/>
<polygon class="st1" points="3.7,24.3 0,19.6 24,1.5 48,19.5 44.4,24.3 24,8.9 "/>
<polygon class="st2" points="6,22.6 24,8.9 42,22.5 42,15 24,1.5 6,15.1 "/>
<rect x="16" y="18" class="st3" width="3" height="3"/>
<rect x="29" y="18" class="st3" width="3" height="3"/>
<rect x="16" y="28" class="st3" width="3" height="3"/>
<rect x="29" y="28" class="st3" width="3" height="3"/>
<rect x="16" y="40" class="st3" width="3" height="3"/>
<rect x="6" y="28" class="st3" width="3" height="3"/>
<rect x="6" y="40" class="st3" width="3" height="3"/>
<rect x="39" y="28" class="st3" width="3" height="3"/>
<rect x="39" y="40" class="st3" width="3" height="3"/>
<rect x="29" y="40" class="st3" width="3" height="3"/>
</svg>
