<svg id="Layer_1" data-name="Layer 1" xmlns="http://www.w3.org/2000/svg" viewBox="0 0 286 259"><defs><style>.cls-1{fill:#e38c3d;}</style></defs><path class="cls-1" d="M245,9l-120.5.14V23.88L48.62,96a18.52,18.52,0,0,0,11,33.47,17.7,17.7,0,0,0,2.62-.22,18.53,18.53,0,0,0,15.92,28,17.81,17.81,0,0,0,2.62-.22,18.53,18.53,0,0,0,15.91,28,19.3,19.3,0,0,0,2.63-.22,18.53,18.53,0,0,0,30.25,21.22l49.41-54.77s-5.39-33.94-7.44-46.92,2.26-49.08,45.65-49.08c13.52,0,16.51,10,18.83,16.29s9,25.42,9,25.42ZM212.52,73.88a23.17,23.17,0,0,0-23.17,23.18c0,.77.16,1.5.23,2.26l-.11.09.31,1.92c0,.18.05.36.09.54l8.78,55.44S155.1,206,146.6,214.48c-8.15,8.16-14.31,16.22-31.41,16.85V250H226.42l-9.27-37.08,25.26-46.25c.19-.33.37-.66.54-1l.24-.43v-.08a18.46,18.46,0,0,0,1.14-12.67v0l0-.12a18.5,18.5,0,0,0-.67-1.94L217.15,73.88Z"/></svg>