<svg id="Layer_1" data-name="Layer 1" xmlns="http://www.w3.org/2000/svg" viewBox="0 0 286 259"><defs><style>.cls-1{fill:#e38c3d;}</style></defs><path class="cls-1" d="M203.05,8.56c-38,0-60,33-60,33s-22-33-60-33a72,72,0,0,0-71.95,72c0,28.8,14,57,33,82.37V96.51h11a11,11,0,0,1,11,11v39.42l69.18-69.18a11,11,0,1,1,15.55,15.54l-42.65,42.65,6.44,6.44,53.64-53.64a11,11,0,1,1,15.54,15.55L130.2,157.91l6.44,6.44,42.64-42.64a11,11,0,0,1,15.55,15.55L152.19,179.9l6.44,6.44,20.65-20.65a11,11,0,1,1,15.55,15.54L130.05,246a21.54,21.54,0,0,0,26.22-.1l0,.07C193.42,216.89,275,150.22,275,80.51A72,72,0,0,0,203.05,8.56Z"/></svg>