<svg id="Layer_1" data-name="Layer 1" xmlns="http://www.w3.org/2000/svg" viewBox="0 0 286 259"><defs><style>.cls-1{fill:#e38c3d;}</style></defs><path class="cls-1" d="M143,30c-19.19,0-34.56,7-44.38,19.08a52.16,52.16,0,0,0-9.89-1c-15.53,0-20.36,10.19-20.36,10.19C54.49,58.28,48,72.34,48,88.81a35.76,35.76,0,0,0,3.59,15c-1.44.82-3.81,3.45-3.22,8.13,1.12,8.7,4.88,10.89,7.28,11.07.92,8.13,11.91,18.53,15,20v13.57C63.85,177,7.32,163.42,7.32,210.91H43.5A18.09,18.09,0,0,0,61.59,229H224.41a18.09,18.09,0,0,0,18.09-18.09h36.18c0-47.49-56.53-33.92-63.32-54.27V143.07c3.06-1.51,14-11.91,15-20,2.4-.18,6.16-2.37,7.28-11.07.59-4.68-1.78-7.31-3.22-8.13a35.76,35.76,0,0,0,3.59-15c0-16.47-6.47-30.53-20.35-30.53,0,0-4.83-10.19-20.36-10.19a51,51,0,0,0-11.16,1.26,32.68,32.68,0,0,0-14.28-8.48C165.6,34.87,156,30,143,30Zm0,18.09c14.62,0,19.15,9.58,19.15,9.58,13.07,0,19.17,13.24,19.17,28.74A33.77,33.77,0,0,1,178,100.54c1.35.78,3.58,3.25,3,7.65-1.05,8.2-4.6,10.27-6.86,10.44-.87,7.64-10.14,18.5-13,19.92v21.28c6.39,19.16,63.32,6.39,63.32,51.08H61.59c0-44.69,56.93-31.93,63.32-51.08V138.55c-2.88-1.42-12.16-12.27-13-19.92-2.26-.17-5.81-2.25-6.86-10.44-.56-4.39,1.69-6.87,3-7.65,0,0-3.37-7.1-3.37-14.15C104.7,65.46,115.92,48.09,143,48.09Z"/></svg>